HIERARCHY
ROOT Hips
{
    OFFSET 0.000000 0.000000 0.000000
    CHANNELS 6 Xposition Yposition Zposition Zrotation Yrotation Xrotation
    JOINT Chest
    {
        OFFSET 0.000000 1.634758 -0.000000
        CHANNELS 3 Zrotation Yrotation Xrotation
        JOINT Chest2
        {
            OFFSET 0.000000 2.197341 0.000000
            CHANNELS 3 Zrotation Yrotation Xrotation
            JOINT Neck
            {
                OFFSET 0.000000 0.961544 0.000000
                CHANNELS 3 Zrotation Yrotation Xrotation
                JOINT Head
                {
                    OFFSET 0.000000 0.632542 -0.032565
                    CHANNELS 3 Zrotation Yrotation Xrotation
                    End Site
                    {
                        OFFSET -0.000001 0.439502 2.922845
                    }
                }
            }
            JOINT LeftCollar
            {
                OFFSET 0.167536 0.778237 -0.168280
                CHANNELS 3 Zrotation Yrotation Xrotation
                JOINT LeftShoulder
                {
                    OFFSET 0.831514 -0.002900 0.006458
                    CHANNELS 3 Zrotation Yrotation Xrotation
                    JOINT LeftElbow
                    {
                        OFFSET 2.272872 -0.026639 0.059314
                        CHANNELS 3 Zrotation Yrotation Xrotation
                        JOINT LeftWrist
                        {
                            OFFSET 2.081982 -0.024402 0.054333
                            CHANNELS 3 Zrotation Yrotation Xrotation
                            JOINT LeftHandThumb1
                            {
                                OFFSET 0.218903 -0.128645 0.283837
                                CHANNELS 3 Zrotation Yrotation Xrotation
                                JOINT LeftHandThumb2
                                {
                                    OFFSET 0.137157 -0.025101 0.077902
                                    CHANNELS 3 Zrotation Yrotation Xrotation
                                    JOINT LeftHandThumb3
                                    {
                                        OFFSET 0.153841 -0.092013 0.037491
                                        CHANNELS 3 Zrotation Yrotation Xrotation
                                        End Site
                                        {
                                            OFFSET 0.250229 -0.094298 0.018159
                                        }
                                    }
                                }
                            }
                            JOINT LeftHandFore1
                            {
                                OFFSET 0.767340 -0.016076 0.196678
                                CHANNELS 3 Zrotation Yrotation Xrotation
                                JOINT LeftHandFore2
                                {
                                    OFFSET 0.209704 -0.054892 -0.002535
                                    CHANNELS 3 Zrotation Yrotation Xrotation
                                    JOINT LeftHandFore3
                                    {
                                        OFFSET 0.094862 -0.086925 0.014435
                                        CHANNELS 3 Zrotation Yrotation Xrotation
                                        End Site
                                        {
                                            OFFSET 0.043534 -0.188195 0.007354
                                        }
                                    }
                                }
                            }
                            JOINT LeftHandMiddle1
                            {
                                OFFSET 0.709887 -0.008320 0.018526
                                CHANNELS 3 Zrotation Yrotation Xrotation
                                JOINT LeftHandMiddle2
                                {
                                    OFFSET 0.191985 -0.150395 0.024221
                                    CHANNELS 3 Zrotation Yrotation Xrotation
                                    JOINT LeftHandMiddle3
                                    {
                                        OFFSET 0.033369 -0.142120 0.008454
                                        CHANNELS 3 Zrotation Yrotation Xrotation
                                        End Site
                                        {
                                            OFFSET -0.074853 -0.222748 0.020270
                                        }
                                    }
                                }
                            }
                            JOINT LeftHandRing1
                            {
                                OFFSET 0.743817 -0.005823 -0.153668
                                CHANNELS 3 Zrotation Yrotation Xrotation
                                JOINT LeftHandRing2
                                {
                                    OFFSET 0.217468 -0.278222 -0.005782
                                    CHANNELS 3 Zrotation Yrotation Xrotation
                                    JOINT LeftHandRing3
                                    {
                                        OFFSET -0.044417 -0.127138 0.021648
                                        CHANNELS 3 Zrotation Yrotation Xrotation
                                        End Site
                                        {
                                            OFFSET -0.113601 -0.038708 0.004031
                                        }
                                    }
                                }
                            }
                            JOINT LeftHandLittle1
                            {
                                OFFSET 0.689408 -0.053302 -0.308304
                                CHANNELS 3 Zrotation Yrotation Xrotation
                                JOINT LeftHandLittle2
                                {
                                    OFFSET 0.032343 -0.192093 0.010410
                                    CHANNELS 3 Zrotation Yrotation Xrotation
                                    JOINT LeftHandLittle3
                                    {
                                        OFFSET -0.112640 -0.042317 -0.004212
                                        CHANNELS 3 Zrotation Yrotation Xrotation
                                        End Site
                                        {
                                            OFFSET -0.187187 0.035315 -0.001619
                                        }
                                    }
                                }
                            }
                        }
                    }
                }
            }
            JOINT RightCollar
            {
                OFFSET -0.167536 0.778237 -0.168280
                CHANNELS 3 Zrotation Yrotation Xrotation
                JOINT RightShoulder
                {
                    OFFSET -0.831514 -0.002900 0.006457
                    CHANNELS 3 Zrotation Yrotation Xrotation
                    JOINT RightElbow
                    {
                        OFFSET -2.272872 -0.026639 0.059313
                        CHANNELS 3 Zrotation Yrotation Xrotation
                        JOINT RightWrist
                        {
                            OFFSET -2.081982 -0.024402 0.054331
                            CHANNELS 3 Zrotation Yrotation Xrotation
                            JOINT RightHandThumb1
                            {
                                OFFSET -0.218911 -0.128571 0.283837
                                CHANNELS 3 Zrotation Yrotation Xrotation
                                JOINT RightHandThumb2
                                {
                                    OFFSET -0.137157 -0.025101 0.077902
                                    CHANNELS 3 Zrotation Yrotation Xrotation
                                    JOINT RightHandThumb3
                                    {
                                        OFFSET -0.172261 -0.047871 0.039673
                                        CHANNELS 3 Zrotation Yrotation Xrotation
                                        End Site
                                        {
                                            OFFSET -0.234990 -0.039993 0.122543
                                        }
                                    }
                                }
                            }
                            JOINT RightHandFore1
                            {
                                OFFSET -0.767344 -0.015991 0.196679
                                CHANNELS 3 Zrotation Yrotation Xrotation
                                JOINT RightHandFore2
                                {
                                    OFFSET -0.134492 -0.169567 0.012474
                                    CHANNELS 3 Zrotation Yrotation Xrotation
                                    JOINT RightHandFore3
                                    {
                                        OFFSET 0.028013 -0.126223 0.006729
                                        CHANNELS 3 Zrotation Yrotation Xrotation
                                        End Site
                                        {
                                            OFFSET 0.072568 -0.175329 0.036882
                                        }
                                    }
                                }
                            }
                            JOINT RightHandMiddle1
                            {
                                OFFSET -0.709887 -0.008302 0.018525
                                CHANNELS 3 Zrotation Yrotation Xrotation
                                JOINT RightHandMiddle2
                                {
                                    OFFSET -0.075336 -0.233019 0.009415
                                    CHANNELS 3 Zrotation Yrotation Xrotation
                                    JOINT RightHandMiddle3
                                    {
                                        OFFSET 0.064084 -0.131444 -0.000367
                                        CHANNELS 3 Zrotation Yrotation Xrotation
                                        End Site
                                        {
                                            OFFSET 0.179646 -0.152570 -0.008954
                                        }
                                    }
                                }
                            }
                            JOINT RightHandRing1
                            {
                                OFFSET -0.743819 -0.005785 -0.153669
                                CHANNELS 3 Zrotation Yrotation Xrotation
                                JOINT RightHandRing2
                                {
                                    OFFSET -0.112392 -0.334445 -0.015743
                                    CHANNELS 3 Zrotation Yrotation Xrotation
                                    JOINT RightHandRing3
                                    {
                                        OFFSET 0.068735 -0.117779 -0.002942
                                        CHANNELS 3 Zrotation Yrotation Xrotation
                                        End Site
                                        {
                                            OFFSET 0.110621 -0.046539 0.004156
                                        }
                                    }
                                }
                            }
                            JOINT RightHandLittle1
                            {
                                OFFSET -0.689403 -0.053298 -0.308303
                                CHANNELS 3 Zrotation Yrotation Xrotation
                                JOINT RightHandLittle2
                                {
                                    OFFSET -0.055643 -0.184018 -0.033111
                                    CHANNELS 3 Zrotation Yrotation Xrotation
                                    JOINT RightHandLittle3
                                    {
                                        OFFSET 0.069584 -0.098099 -0.005505
                                        CHANNELS 3 Zrotation Yrotation Xrotation
                                        End Site
                                        {
                                            OFFSET 0.136121 -0.132930 0.009443
                                        }
                                    }
                                }
                            }
                        }
                    }
                }
            }
        }
    }
    JOINT LeftHip
    {
        OFFSET 0.685143 0.673822 -0.044491
        CHANNELS 3 Zrotation Yrotation Xrotation
        JOINT LeftKnee
        {
            OFFSET 0.085364 -3.750208 0.017676
            CHANNELS 3 Zrotation Yrotation Xrotation
            JOINT LeftAnkle
            {
                OFFSET 0.094583 -4.155206 0.019585
                CHANNELS 3 Zrotation Yrotation Xrotation
                JOINT LeftToe
                {
                    OFFSET -0.000000 -0.395925 0.621478
                    CHANNELS 3 Zrotation Yrotation Xrotation
                    End Site
                    {
                        OFFSET -0.000000 -0.077878 0.321152
                    }
                }
            }
        }
    }
    JOINT RightHip
    {
        OFFSET -0.685143 0.673822 -0.044492
        CHANNELS 3 Zrotation Yrotation Xrotation
        JOINT RightKnee
        {
            OFFSET -0.085364 -3.750208 0.017677
            CHANNELS 3 Zrotation Yrotation Xrotation
            JOINT RightAnkle
            {
                OFFSET -0.094583 -4.155206 0.019585
                CHANNELS 3 Zrotation Yrotation Xrotation
                JOINT RightToe
                {
                    OFFSET -0.000000 -0.395925 0.621478
                    CHANNELS 3 Zrotation Yrotation Xrotation
                    End Site
                    {
                        OFFSET -0.000000 -0.077878 0.321152
                    }
                }
            }
        }
    }
}
MOTION
Frames: 5
Frame Time: 0.033333
-0.004744 8.856129 -0.372448 -179.025803 6.892150 175.522430 -0.849933 -0.430693 8.676609 -1.145444 0.137511 -3.688952 5.641261 0.233078 6.955518 -0.043625 0.847419 15.418266 -14.590461 2.205212 0.061598 -61.181965 17.621687 -1.872544 0.044323 -20.565308 -0.251664 -1.404151 0.005270 16.150333 -0.000000 0.000004 -0.000005 -0.000001 -0.000000 0.000002 -0.000002 0.000001 0.000007 0.000000 0.000001 -0.000002 0.000003 -0.000000 0.000005 -0.000001 0.000000 0.000003 -0.000005 -0.000000 0.000002 0.000000 -0.000000 0.000002 0.000001 -0.000000 0.000002 -0.000005 -0.000000 0.000000 0.000001 -0.000002 0.000000 0.000006 0.000002 -0.000002 -0.000001 -0.000003 0.000005 0.000003 -0.000000 -0.000005 -0.000003 0.000001 0.000000 15.041185 -1.134455 -0.051509 63.107521 -11.887253 -0.104970 -0.036662 18.816164 -0.228580 4.019249 0.071551 35.282482 -0.000001 -0.000004 -0.000009 0.000003 -0.000001 0.000009 -0.000002 -0.000000 0.000000 -0.000004 0.000001 0.000000 0.000003 -0.000000 0.000000 -0.000001 -0.000000 -0.000003 -0.000001 0.000001 -0.000005 -0.000004 -0.000001 0.000002 0.000006 0.000002 0.000000 -0.000001 -0.000001 -0.000002 -0.000003 0.000000 0.000000 0.000002 0.000002 -0.000003 0.000001 0.000001 -0.000007 -0.000004 0.000002 0.000003 0.000003 0.000003 0.000002 -0.206396 0.415428 4.609702 0.003131 0.090292 3.969908 -1.262414 14.045274 24.630133 0.179826 -0.825529 -25.920820 1.809998 0.880339 2.324812 -0.009198 -0.154644 6.809835 -5.065609 8.215045 23.606731 0.341072 -1.924657 -23.682186
-0.011958 8.857320 -0.368262 -178.923767 6.892236 175.522385 -0.622272 -0.419325 8.751113 -1.037288 0.130328 -3.611944 5.609911 0.243418 6.901123 -0.043099 0.837204 15.308725 -14.629661 2.161161 0.057610 -61.195675 16.986946 -1.580078 0.040296 -19.669146 -0.239774 0.996369 -3.153177 15.691600 0.000007 0.000003 -0.000010 0.015825 -0.041024 0.027563 0.015726 -0.007626 0.016659 0.023569 -0.013650 -0.066340 -0.018159 0.011246 0.008761 -0.016436 0.001967 0.006700 0.020672 -0.000024 0.003483 0.030430 0.005034 -0.004487 0.000000 -0.000002 -0.000002 0.031479 -0.004064 0.009660 0.045812 -0.004518 0.002280 0.035133 0.020465 0.023004 0.060937 -0.029026 0.020347 0.045423 0.031917 0.006134 0.031659 -0.005344 0.019539 15.023695 -1.049875 -0.047667 63.011475 -11.824666 -0.014586 -0.038126 19.165815 -0.233157 3.521425 -0.879811 33.886696 -0.000000 -0.000000 0.000009 0.000003 -0.000000 0.000007 0.000001 -0.000001 -0.000003 -0.000001 0.000002 0.000010 0.000005 0.000001 0.000000 -0.000001 -0.000000 0.000000 -0.000010 0.000004 0.000012 -0.000001 -0.000000 0.000000 0.000000 -0.000000 0.000003 -0.000016 0.000008 0.000012 -0.000006 -0.000000 -0.000003 -0.000000 0.000001 0.000005 -0.000001 0.000004 0.000010 -0.000000 0.000003 0.000000 0.000002 0.000001 0.000000 -0.159263 0.428510 4.334685 0.003921 0.101037 4.443195 -1.271854 14.030579 24.417828 0.180599 -0.834041 -25.849850 1.856265 0.892929 2.451402 -0.008434 -0.148103 6.520513 -5.006432 8.173489 23.791098 0.340906 -1.935185 -23.623850
-0.032090 8.860533 -0.355235 -178.660583 6.753180 175.582474 -0.026860 -0.464846 8.945971 -0.750504 0.119388 -3.594110 5.519007 0.233589 6.798290 -0.039215 0.761784 15.098904 -14.727664 2.057367 0.050033 -61.240639 15.304794 -0.813087 0.030005 -17.121395 -0.206666 5.404654 -8.609671 13.899325 -0.000003 -0.000005 -0.000012 0.062589 -0.162303 0.108985 0.062198 -0.030160 0.065877 0.093149 -0.054014 -0.262395 -0.071828 0.044503 0.034679 -0.064987 0.007787 0.026510 0.082033 -0.000110 0.013857 0.120414 0.019913 -0.017745 0.000002 0.000002 0.000000 0.124756 -0.016042 0.038266 0.181258 -0.017895 0.009040 0.139000 0.080905 0.091009 0.241146 -0.114772 0.080672 0.179934 0.126110 0.024339 0.125228 -0.021151 0.077265 14.972711 -0.875050 -0.040460 62.747841 -11.782047 0.173413 -0.042168 20.091190 -0.245357 2.346070 -3.430611 30.201273 0.000002 -0.000007 -0.000010 0.000002 0.000000 0.000007 0.000002 -0.000002 -0.000005 0.000005 0.000000 0.000009 -0.000001 -0.000000 -0.000002 -0.000000 0.000000 0.000003 0.000008 0.000001 0.000010 0.000012 0.000001 0.000000 0.000005 -0.000000 0.000000 0.000003 0.000004 0.000007 -0.000005 0.000001 0.000002 0.000012 -0.000000 -0.000002 0.000030 0.000004 -0.000003 -0.000001 0.000000 0.000005 -0.000001 -0.000002 -0.000003 -0.040398 0.468478 3.628303 0.005987 0.124792 5.490804 -1.258464 13.858356 23.980730 0.182640 -0.857986 -25.649153 1.970214 0.930579 2.755543 -0.006444 -0.129512 5.699121 -4.839779 7.919424 24.313448 0.340246 -1.964296 -23.460047
-0.062377 8.865410 -0.334844 -178.300735 6.358716 175.714676 0.806919 -0.641096 9.200883 -0.340452 0.120244 -3.670671 5.374421 0.171656 6.672226 -0.030680 0.596007 14.841472 -14.864727 1.896212 0.043502 -61.350666 12.495395 0.315129 0.015754 -12.600460 -0.149999 8.168280 -11.441951 11.653555 -0.000004 -0.000003 -0.000017 0.139198 -0.361171 0.242264 0.138336 -0.067067 0.146527 0.206960 -0.120151 -0.583796 -0.159786 0.099058 0.077151 -0.144567 0.017351 0.058997 0.183045 -0.000245 0.030920 0.267903 0.044311 -0.039432 -0.000001 -0.000000 0.000002 0.277990 -0.035588 0.085237 0.403268 -0.039949 0.020207 0.309443 0.179813 0.202499 0.536507 -0.255267 0.179855 0.400988 0.279976 0.054323 0.278627 -0.047121 0.171745 14.894681 -0.662172 -0.034625 62.338886 -11.721070 0.409502 -0.047700 21.279560 -0.261238 0.963884 -7.120002 24.976967 0.000003 -0.000002 -0.000002 0.000001 0.000001 0.000005 0.000000 -0.000002 -0.000003 0.000005 -0.000001 0.000010 0.000009 0.000001 0.000000 -0.000002 -0.000001 -0.000002 0.000022 -0.000001 0.000012 0.000013 0.000000 0.000002 0.000007 0.000001 0.000000 0.000002 0.000002 0.000010 -0.000003 -0.000001 0.000000 0.000019 -0.000001 -0.000002 0.000042 0.000005 -0.000002 0.000018 -0.000003 -0.000003 0.000004 -0.000004 0.000003 0.112865 0.537600 2.722125 0.008741 0.150717 6.636132 -1.175389 13.425887 23.555466 0.185372 -0.894675 -25.337746 2.113313 0.989539 3.276015 -0.003631 -0.097270 4.277243 -4.587088 7.353409 25.184055 0.338695 -2.007952 -23.207434
-0.099433 8.871767 -0.310899 -177.908661 5.742907 175.846878 1.751667 -0.939142 9.448505 0.140612 0.136598 -3.594635 5.183677 0.066917 6.484397 -0.018961 0.368433 14.465873 -15.029859 1.647302 0.039269 -61.688896 5.566521 1.705408 0.000001 -0.000001 -0.000000 10.502986 -13.955119 8.959245 -0.000001 0.000004 -0.000015 0.244477 -0.634946 0.425308 0.243042 -0.117807 0.257459 0.363020 -0.211146 -1.026137 -0.280801 0.174195 0.135616 -0.254083 0.030558 0.103728 0.322703 -0.000422 0.054500 0.470875 0.077902 -0.069198 0.000002 0.000001 0.000000 0.489400 -0.062366 0.150008 0.708770 -0.070527 0.035712 0.544362 0.315597 0.355961 0.942713 -0.448557 0.316801 0.706399 0.490676 0.095894 0.489746 -0.082974 0.301496 14.798553 -0.390449 -0.031646 61.792442 -11.375452 0.718685 -0.053070 22.357512 -0.275866 -0.165514 -11.481197 18.858221 0.000004 0.000010 -0.000012 0.000003 0.000001 0.000003 0.000002 -0.000003 0.000001 0.000018 0.000006 0.000007 0.000023 0.000003 0.000001 -0.000001 -0.000001 0.000000 0.000035 0.000006 0.000012 0.000023 0.000001 0.000002 0.000005 -0.000000 0.000000 0.000005 0.000008 0.000009 0.000010 0.000001 0.000001 0.000020 -0.000004 -0.000003 0.000041 0.000008 0.000001 0.000019 -0.000009 -0.000002 0.000007 -0.000005 0.000003 0.258271 0.638049 1.845107 0.011513 0.172882 7.617458 -1.017871 12.772343 23.241283 0.188110 -0.941172 -24.934513 2.244830 1.054854 4.539947 -0.000397 -0.032192 1.414394 -4.247117 6.542789 26.773167 0.335797 -2.061929 -22.882818
